<svg version="1.2" xmlns="http://www.w3.org/2000/svg" viewBox="0 0 739 579" width="739" height="579">
	<title>DrawKit Vector Illustration Project Manager (6)-svg</title>
	<defs>
		<clipPath clipPathUnits="userSpaceOnUse" id="cp1">
			<path d="m623.3 478.1l-520-14.9c-5.8-0.16-11.52-1.37-16.89-3.57-5.36-2.2-10.29-5.35-14.53-9.3-4.25-3.95-7.74-8.64-10.32-13.84-2.57-5.2-4.19-10.82-4.76-16.59l-25.1-248c-0.67-6.64 0.05-13.34 2.11-19.69 2.06-6.35 5.41-12.2 9.85-17.18 4.43-4.98 9.86-8.99 15.93-11.76 6.06-2.78 12.64-4.27 19.31-4.37l578.8-8c6.88-0.09 13.71 1.29 20.01 4.05 6.3 2.77 11.94 6.85 16.54 11.97 4.59 5.13 8.04 11.18 10.1 17.75 2.06 6.57 2.69 13.5 1.85 20.33l-33.7 270.9c-0.74 5.89-2.57 11.6-5.38 16.83-2.82 5.22-6.58 9.89-11.08 13.76-4.51 3.86-9.69 6.86-15.29 8.85-5.6 1.99-11.51 2.92-17.45 2.76z"/>
		</clipPath>
	</defs>
	<style>
		.s0 { fill: #eaf9f3 } 
		.s1 { fill: none;stroke: #b8d8c7;stroke-linecap: round;stroke-linejoin: round;stroke-width: 1.8 } 
		.s2 { fill: #b8d8c7 } 
		.s3 { fill: #63737a } 
		.s4 { fill: #22272e } 
		.s5 { fill: #ffe779 } 
		.s6 { fill: #6dafa7 } 
		.s7 { fill: #f4c2c9 } 
		.s8 { fill: #020202 } 
		.s9 { fill: #ffffff } 
		.s10 { fill: none;stroke: #6dafa7;stroke-linecap: round;stroke-linejoin: round;stroke-width: 1.8 } 
		.s11 { fill: none;stroke: #22272e;stroke-linecap: round;stroke-linejoin: round;stroke-width: 1.8 } 
		.s12 { fill: #b28d93 } 
		.s13 { fill: #896068 } 
		.s14 { fill: none;stroke: #63737a;stroke-linecap: round;stroke-linejoin: round;stroke-width: 1.8 } 
		.s15 { fill: none;stroke: #896068;stroke-linecap: round;stroke-linejoin: round;stroke-width: 1.8 } 
		.s16 { fill: none;stroke: #f8ab5d;stroke-linecap: round;stroke-linejoin: round;stroke-width: 1.8 } 
		.s17 { fill: #f8ab5d } 
		.s18 { fill: none;stroke: #000000;stroke-linecap: round;stroke-linejoin: round;stroke-width: 1.8 } 
	</style>
	<path id="Layer" class="s0" d="m623.3 478.1l-520-14.9c-5.8-0.2-11.5-1.4-16.9-3.6-5.4-2.2-10.3-5.3-14.5-9.3-4.3-3.9-7.8-8.6-10.3-13.8-2.6-5.2-4.2-10.8-4.8-16.6l-25.1-248c-0.7-6.6 0-13.3 2.1-19.7 2.1-6.3 5.4-12.2 9.9-17.2 4.4-5 9.8-9 15.9-11.7 6.1-2.8 12.6-4.3 19.3-4.4l578.8-8c6.9-0.1 13.7 1.3 20 4.1 6.3 2.7 12 6.8 16.5 11.9 4.6 5.1 8.1 11.2 10.1 17.8 2.1 6.5 2.7 13.5 1.9 20.3l-33.7 270.9c-0.7 5.9-2.6 11.6-5.4 16.8-2.8 5.3-6.6 9.9-11.1 13.8-4.5 3.9-9.7 6.9-15.3 8.8-5.5 2-11.5 3-17.4 2.8z"/>
	<g id="Clip-Path" clip-path="url(#cp1)">
		<g id="Layer">
			<path id="Layer" fill-rule="evenodd" class="s1" d="m198.9 523.1h-415.5c-2 0-3.9-0.4-5.7-1.1-1.9-0.8-3.5-1.9-4.9-3.3-1.4-1.4-2.5-3-3.3-4.9-0.7-1.8-1.1-3.7-1.1-5.7v-235.7c0-2 0.4-3.9 1.1-5.7 0.8-1.9 1.9-3.5 3.3-4.9 1.4-1.4 3-2.5 4.9-3.3 1.8-0.7 3.7-1.1 5.7-1.1h415.5c2 0 3.9 0.4 5.7 1.1 1.9 0.8 3.5 1.9 4.9 3.3 1.4 1.4 2.5 3 3.3 4.9 0.7 1.8 1.1 3.7 1.1 5.7v235.6c0 2-0.4 3.9-1.1 5.8-0.8 1.8-1.9 3.5-3.3 4.9-1.4 1.4-3 2.5-4.8 3.2-1.9 0.8-3.8 1.2-5.8 1.2z"/>
			<path id="Layer" fill-rule="evenodd" class="s1" d="m748 507.3h-419.1c-2 0-3.9-0.4-5.7-1.1-1.9-0.8-3.5-1.9-4.9-3.3-1.4-1.4-2.5-3-3.3-4.9-0.7-1.8-1.1-3.7-1.1-5.7v-344.3c0-2 0.4-3.9 1.1-5.7 0.8-1.9 1.9-3.5 3.3-4.9 1.4-1.4 3-2.5 4.9-3.3 1.8-0.7 3.7-1.1 5.7-1.1h419.1c2 0 3.9 0.4 5.7 1.1 1.9 0.8 3.5 1.9 4.9 3.3 1.4 1.4 2.5 3 3.3 4.9 0.7 1.8 1.1 3.7 1.1 5.7v344.3c0 2-0.4 3.9-1.1 5.7-0.8 1.9-1.9 3.5-3.3 4.9-1.4 1.4-3 2.5-4.9 3.3-1.8 0.7-3.7 1.1-5.7 1.1z"/>
			<path id="Layer" fill-rule="evenodd" class="s1" d="m84.1 257.4h-20.3q-0.8 0-1.5-0.3-0.8-0.3-1.4-0.8-0.6-0.5-0.9-1.2-0.4-0.7-0.5-1.5l-1.6-14.4q-0.1-0.9 0.2-1.8 0.3-0.9 0.9-1.6 0.6-0.6 1.4-1 0.9-0.4 1.8-0.4h23.5q0.9 0 1.8 0.4 0.8 0.4 1.4 1 0.6 0.7 0.9 1.6 0.3 0.9 0.2 1.8l-1.6 14.4q-0.1 0.8-0.5 1.5-0.3 0.7-0.9 1.2-0.6 0.5-1.4 0.8-0.7 0.3-1.5 0.3z"/>
			<path id="Layer" class="s2" d="m71.5 234.5c0 0-8-0.8-9.6-11.6 0 0 7.2 2.1 9.5 7.2 0 0 1-11.4 6.4-12.5 0 0 2.4 8.5-1.4 12.7 0 0 2.9-4.8 10.3-4.7q-0.5 1.6-1.4 3-0.9 1.4-2.1 2.5-1.2 1.2-2.7 2-1.4 0.8-3 1.3"/>
			<path id="Layer" fill-rule="evenodd" class="s1" d="m195.7 307.2h-90.2q-0.8 0-1.6-0.3-0.8-0.4-1.4-0.9-0.5-0.6-0.9-1.4-0.3-0.8-0.3-1.6v-27.4q0-0.8 0.3-1.6 0.4-0.8 0.9-1.4 0.6-0.5 1.4-0.9 0.8-0.3 1.6-0.3h90.2q0.8 0 1.6 0.3 0.8 0.4 1.4 0.9 0.5 0.6 0.9 1.4 0.3 0.8 0.3 1.6v27.4q0 0.8-0.3 1.6-0.3 0.8-0.9 1.4-0.6 0.6-1.4 0.9-0.8 0.3-1.6 0.3z"/>
			<path id="Layer" class="s2" d="m161 281h-20.8q-0.3 0-0.6-0.1-0.2-0.1-0.4-0.4-0.3-0.2-0.4-0.4-0.1-0.3-0.1-0.6 0-0.3 0.1-0.6 0.1-0.2 0.4-0.4 0.2-0.3 0.4-0.4 0.3-0.1 0.6-0.1h20.8q0.3 0 0.6 0.1 0.2 0.1 0.4 0.4 0.3 0.2 0.4 0.4 0.1 0.3 0.1 0.6 0 0.3-0.1 0.6-0.1 0.2-0.4 0.4-0.2 0.3-0.4 0.4-0.3 0.1-0.6 0.1z"/>
			<path id="Layer" fill-rule="evenodd" class="s1" d="m195.7 353h-90.2q-0.8 0-1.6-0.3-0.8-0.4-1.4-0.9-0.5-0.6-0.9-1.4-0.3-0.8-0.3-1.6v-27.4q0-0.8 0.3-1.6 0.4-0.8 0.9-1.4 0.6-0.5 1.4-0.9 0.8-0.3 1.6-0.3h90.2q0.8 0 1.6 0.3 0.8 0.4 1.4 0.9 0.5 0.6 0.9 1.4 0.3 0.8 0.3 1.6v27.4q0 0.8-0.3 1.6-0.3 0.8-0.9 1.4-0.6 0.6-1.4 0.9-0.8 0.3-1.6 0.3z"/>
			<path id="Layer" class="s2" d="m161 326.8h-20.8q-0.3 0-0.6-0.1-0.2-0.1-0.4-0.4-0.3-0.2-0.4-0.4-0.1-0.3-0.1-0.6 0-0.3 0.1-0.6 0.1-0.2 0.4-0.4 0.2-0.3 0.4-0.4 0.3-0.1 0.6-0.1h20.8q0.3 0 0.6 0.1 0.2 0.1 0.4 0.4 0.3 0.2 0.4 0.4 0.1 0.3 0.1 0.6 0 0.3-0.1 0.6-0.1 0.3-0.3 0.5-0.2 0.2-0.5 0.3-0.3 0.1-0.6 0.1z"/>
			<path id="Layer" fill-rule="evenodd" class="s1" d="m658.9 385.3h-90.2q-0.8 0-1.6-0.3-0.8-0.4-1.4-0.9-0.5-0.6-0.9-1.4-0.3-0.8-0.3-1.6v-27.4q0-0.8 0.3-1.6 0.4-0.8 0.9-1.4 0.6-0.5 1.4-0.9 0.8-0.3 1.6-0.3h90.2q0.8 0 1.6 0.3 0.8 0.4 1.4 0.9 0.5 0.6 0.9 1.4 0.3 0.8 0.3 1.6v27.4q0 0.8-0.3 1.6-0.3 0.8-0.9 1.4-0.6 0.6-1.4 0.9-0.8 0.3-1.6 0.3z"/>
			<path id="Layer" class="s2" d="m624.2 359.2h-20.8q-0.3 0-0.6-0.1-0.2-0.1-0.4-0.4-0.3-0.2-0.4-0.4-0.1-0.3-0.1-0.6 0-0.3 0.1-0.6 0.1-0.2 0.4-0.4 0.2-0.3 0.4-0.4 0.3-0.1 0.6-0.1h20.8q0.3 0 0.6 0.1 0.2 0.1 0.4 0.4 0.3 0.2 0.4 0.4 0.1 0.3 0.1 0.6 0 0.3-0.1 0.6-0.1 0.2-0.4 0.4-0.2 0.3-0.4 0.4-0.3 0.1-0.6 0.1z"/>
			<path id="Layer" fill-rule="evenodd" class="s1" d="m543.1 385.3h-90.2q-0.8 0-1.6-0.3-0.8-0.4-1.4-0.9-0.5-0.6-0.9-1.4-0.3-0.8-0.3-1.6v-27.4q0-0.8 0.3-1.6 0.4-0.8 0.9-1.4 0.6-0.5 1.4-0.9 0.8-0.3 1.6-0.3h90.2q0.8 0 1.6 0.3 0.8 0.4 1.4 0.9 0.5 0.6 0.9 1.4 0.3 0.8 0.3 1.6v27.4q0 0.8-0.3 1.6-0.4 0.8-0.9 1.4-0.6 0.5-1.4 0.9-0.8 0.3-1.6 0.3z"/>
			<path id="Layer" class="s2" d="m508.4 359.2h-20.8q-0.3 0-0.6-0.1-0.2-0.1-0.4-0.4-0.3-0.2-0.4-0.4-0.1-0.3-0.1-0.6 0-0.3 0.1-0.6 0.1-0.2 0.4-0.4 0.2-0.3 0.4-0.4 0.3-0.1 0.6-0.1h20.8q0.3 0 0.6 0.1 0.2 0.1 0.4 0.4 0.3 0.2 0.4 0.4 0.1 0.3 0.1 0.6 0 0.3-0.1 0.6-0.1 0.2-0.4 0.4-0.2 0.3-0.4 0.4-0.3 0.1-0.6 0.1z"/>
			<path id="Layer" fill-rule="evenodd" class="s1" d="m80.7 307.2h-90.2q-0.8 0-1.6-0.3-0.8-0.4-1.4-0.9-0.5-0.6-0.9-1.4-0.3-0.8-0.3-1.6v-27.4q0-0.8 0.3-1.6 0.4-0.8 0.9-1.4 0.6-0.5 1.4-0.9 0.8-0.3 1.6-0.3h90.2q0.8 0 1.6 0.3 0.8 0.4 1.4 0.9 0.5 0.6 0.9 1.4 0.3 0.8 0.3 1.6v27.4q0 0.8-0.3 1.6-0.3 0.8-0.9 1.4-0.6 0.6-1.4 0.9-0.8 0.3-1.6 0.3z"/>
			<path id="Layer" class="s2" d="m46 281h-20.8q-0.3 0-0.6-0.1-0.2-0.1-0.4-0.4-0.3-0.2-0.4-0.4-0.1-0.3-0.1-0.6 0-0.3 0.1-0.6 0.1-0.2 0.4-0.4 0.2-0.3 0.4-0.4 0.3-0.1 0.6-0.1h20.8q0.3 0 0.6 0.1 0.2 0.1 0.4 0.4 0.3 0.2 0.4 0.4 0.1 0.3 0.1 0.6 0 0.3-0.1 0.6-0.1 0.3-0.3 0.5-0.2 0.2-0.5 0.3-0.3 0.1-0.6 0.1z"/>
			<path id="Layer" fill-rule="evenodd" class="s1" d="m80.7 353h-90.2q-0.8 0-1.6-0.3-0.8-0.4-1.4-0.9-0.5-0.6-0.9-1.4-0.3-0.8-0.3-1.6v-27.4q0-0.8 0.3-1.6 0.4-0.8 0.9-1.4 0.6-0.5 1.4-0.9 0.8-0.3 1.6-0.3h90.2q0.8 0 1.6 0.3 0.8 0.4 1.4 0.9 0.5 0.6 0.9 1.4 0.3 0.8 0.3 1.6v27.4q0 0.8-0.3 1.6-0.3 0.8-0.9 1.4-0.6 0.6-1.4 0.9-0.8 0.3-1.6 0.3z"/>
			<path id="Layer" class="s2" d="m46 326.8h-20.8q-0.3 0-0.6-0.1-0.2-0.1-0.4-0.4-0.3-0.2-0.4-0.4-0.1-0.3-0.1-0.6 0-0.3 0.1-0.6 0.1-0.2 0.4-0.4 0.2-0.3 0.4-0.4 0.3-0.1 0.6-0.1h20.8q0.3 0 0.6 0.1 0.2 0.1 0.4 0.4 0.3 0.2 0.4 0.4 0.1 0.3 0.1 0.6 0 0.3-0.1 0.6-0.1 0.3-0.3 0.5-0.2 0.2-0.5 0.3-0.3 0.1-0.6 0.1z"/>
			<path id="Layer" fill-rule="evenodd" class="s1" d="m790.2 237.8h-455q-0.9 0-1.8-0.4-0.8-0.3-1.4-1-0.7-0.6-1-1.4-0.4-0.9-0.4-1.8v-79.7q0-0.9 0.4-1.8 0.3-0.8 1-1.4 0.6-0.7 1.4-1 0.9-0.4 1.8-0.4h455q0.9 0 1.8 0.4 0.8 0.3 1.4 1 0.7 0.6 1 1.4 0.4 0.9 0.4 1.8v79.7q0 0.9-0.3 1.8-0.4 0.8-1 1.5-0.7 0.6-1.5 1-0.9 0.3-1.8 0.3z"/>
			<path id="Layer" fill-rule="evenodd" class="s1" d="m790.2 336.7h-455q-0.9 0-1.8-0.4-0.8-0.3-1.4-1-0.7-0.6-1-1.4-0.4-0.9-0.4-1.8v-79.7q0-0.9 0.4-1.8 0.3-0.8 1-1.4 0.6-0.7 1.4-1 0.9-0.4 1.8-0.4h455q0.9 0 1.8 0.4 0.8 0.3 1.4 1 0.7 0.6 1 1.4 0.4 0.9 0.4 1.8v79.7q0 0.9-0.3 1.8-0.4 0.8-1 1.5-0.7 0.6-1.5 1-0.9 0.3-1.8 0.3z"/>
			<path id="Layer" class="s1" d="m361.3 187.5h9.9v50.3h-9.9z"/>
			<path id="Layer" class="s1" d="m371.1 201.2h10.3v36.6h-10.3z"/>
			<path id="Layer" class="s1" d="m659.6 286.3h9.9v50.3h-9.9z"/>
			<path id="Layer" class="s1" d="m669.5 300h10.3v36.6h-10.3z"/>
			<path id="Layer" class="s1" d="m639.5 286.3h9.9v50.3h-9.9z"/>
			<path id="Layer" class="s1" d="m615 333.1l15.2-47.9 9.4 2.9-15.1 48z"/>
			<path id="Layer" class="s1" d="m649.4 300h10.3v36.6h-10.3z"/>
			<path id="Layer" class="s1" d="m526.1 187.5h9.9v50.3h-9.9z"/>
			<path id="Layer" class="s1" d="m536 201.2h10.3v36.6h-10.3z"/>
			<path id="Layer" class="s1" d="m428.3 187.5h9.9v50.3h-9.9z"/>
			<path id="Layer" class="s1" d="m403.8 234.3l15.2-48 9.4 3-15.1 48z"/>
			<path id="Layer" class="s1" d="m438.2 201.2h10.3v36.6h-10.3z"/>
			<path id="Layer" class="s2" d="m669.4 194.1l1.1-14.9q0-0.4-0.1-0.7-0.1-0.3-0.3-0.6-0.3-0.2-0.6-0.4-0.3-0.1-0.7-0.1h-8.6q-0.4 0-0.7 0.1-0.3 0.2-0.5 0.4-0.3 0.3-0.4 0.6-0.1 0.3-0.1 0.7l1.1 14.9c0 0-9 5.8-8.9 10.6 0.1 3.7 2.3 21.4 3.3 29.2q0.1 0.8 0.5 1.5 0.3 0.7 0.9 1.2 0.6 0.5 1.4 0.8 0.7 0.3 1.5 0.3h12.4q0.8 0 1.5-0.3 0.8-0.3 1.4-0.8 0.6-0.5 0.9-1.2 0.4-0.7 0.5-1.5c1-7.8 3.2-25.5 3.3-29.2 0.1-4.9-8.9-10.6-8.9-10.6z"/>
			<path id="Layer" class="s2" d="m629.5 194.1l1.1-14.9q0-0.4-0.1-0.7-0.1-0.3-0.3-0.6-0.3-0.2-0.6-0.4-0.3-0.1-0.7-0.1h-8.6q-0.4 0-0.7 0.1-0.3 0.2-0.5 0.4-0.3 0.3-0.4 0.6-0.1 0.3-0.1 0.7l1.1 14.9c0 0-9 5.8-8.9 10.6 0.1 3.7 2.3 21.4 3.3 29.2q0.1 0.8 0.5 1.5 0.3 0.7 0.9 1.2 0.6 0.5 1.4 0.8 0.7 0.3 1.5 0.3h12.4q0.8 0 1.5-0.3 0.8-0.3 1.4-0.8 0.6-0.5 0.9-1.2 0.4-0.7 0.5-1.5c1-7.8 3.2-25.5 3.3-29.2 0.1-4.9-8.9-10.6-8.9-10.6z"/>
			<path id="Layer" class="s1" d="m30.2 431.1h955.8"/>
		</g>
	</g>
	<path id="Layer" class="s3" d="m251.5 204l-103.8 23.5q-1 0.2-2.1 0-1-0.2-1.9-0.8-0.8-0.6-1.4-1.5-0.5-0.9-0.7-1.9l-20.9-132.7c-0.1-0.8-0.1-1.6 0.2-2.4 0.2-0.7 0.7-1.4 1.2-2 0.6-0.5 1.3-1 2-1.2 0.8-0.3 1.6-0.3 2.4-0.2l108 18.1q0.8 0.1 1.5 0.5 0.7 0.4 1.2 0.9 0.6 0.6 1 1.2 0.3 0.7 0.5 1.5l15.9 92.3q0.1 0.8 0 1.5-0.2 0.8-0.6 1.5-0.5 0.6-1.1 1.1-0.6 0.4-1.4 0.6z"/>
	<path id="Layer" class="s4" d="m257.3 203.9l-104.5 23.6q-1 0.2-2.1 0-1-0.2-1.9-0.8-0.9-0.6-1.5-1.5-0.5-0.8-0.7-1.9l-21.1-133.6c-0.1-0.8-0.1-1.6 0.2-2.4 0.3-0.8 0.7-1.4 1.3-2 0.5-0.6 1.2-1 2-1.2 0.8-0.3 1.6-0.3 2.4-0.2l108.7 18.2q0.8 0.1 1.5 0.5 0.7 0.4 1.3 0.9 0.5 0.6 0.9 1.3 0.4 0.7 0.5 1.5l16.1 92.9q0.1 0.8 0 1.5-0.2 0.8-0.6 1.5-0.5 0.6-1.1 1.1-0.6 0.4-1.4 0.6z"/>
	<path id="Layer" class="s5" d="m170.2 114c0.5 2.9-1.3 5-4 4.8-2.7-0.2-5.4-2.8-5.9-5.8-0.5-3 1.4-5.1 4.1-4.8q1.1 0.2 2.1 0.7 0.9 0.5 1.7 1.3 0.8 0.8 1.3 1.7 0.5 1 0.7 2.1z"/>
	<path id="Layer" class="s5" d="m173.2 132.3l-9.8-0.4q-0.9-0.1-1.7-0.5-0.8-0.4-1.5-1-0.6-0.6-1-1.4-0.5-0.8-0.6-1.7c-0.9-5.4 2.6-9.5 7.5-9.1 4.8 0.4 9.3 4.9 10.2 10.1 0.4 2.3-1 4.1-3.1 4z"/>
	<path id="Layer" class="s3" d="m179.6 200.9q-0.7 0.1-1.5-0.2-0.7-0.2-1.2-0.7-0.6-0.4-1-1.1-0.3-0.7-0.4-1.4l-8-49.5c-0.3-2.1 1-3.9 2.9-3.9q0.8 0.1 1.5 0.4 0.6 0.3 1.2 0.8 0.6 0.5 0.9 1.2 0.4 0.7 0.5 1.4l7.9 48.5c0.3 2.2-0.9 4.2-2.8 4.5z"/>
	<path id="Layer" class="s6" d="m171 170.1l4.4 27.4q0.1 0.7 0.4 1.4 0.4 0.7 1 1.1 0.5 0.5 1.2 0.7 0.8 0.3 1.5 0.2 0.7-0.2 1.3-0.6 0.6-0.4 1-1 0.4-0.6 0.5-1.4 0.1-0.7 0-1.4l-4.4-26.9q-0.1-0.7-0.5-1.4-0.3-0.7-0.9-1.2-0.5-0.5-1.2-0.7-0.7-0.3-1.5-0.3c-1.8 0.1-3.1 1.9-2.8 4.1z"/>
	<path id="Layer" class="s7" d="m202.8 117.2c0.4 2.6-1 4.6-3.2 4.4-2.2-0.2-4.4-2.5-4.9-5.2-0.5-2.7 1-4.6 3.3-4.4 2.3 0.2 4.3 2.5 4.8 5.2z"/>
	<path id="Layer" class="s7" d="m205.5 133.7l-7.9-0.3c-1.8-0.1-3.6-1.9-4-4.1-0.8-4.9 1.9-8.6 5.9-8.3 3.9 0.3 7.7 4.4 8.5 9.1 0.3 2.1-0.8 3.7-2.5 3.6z"/>
	<path id="Layer" class="s3" d="m211.9 195.6c-1.5 0.3-3.1-1.1-3.4-3.1l-7.4-44.6c-0.3-1.9 0.7-3.5 2.3-3.5 1.6 0 3.1 1.6 3.4 3.5l7.3 43.7c0.3 2-0.6 3.8-2.2 4z"/>
	<path id="Layer" class="s6" d="m204.2 166.5l4.3 25.8c0.3 1.8 1.7 3.3 3.1 3.3 1.7-0.1 2.8-1.9 2.5-4l-4.3-25.5c-0.3-1.9-1.8-3.4-3.4-3.3-1.5 0.2-2.5 1.8-2.2 3.7z"/>
	<path id="Layer" class="s6" d="m229.6 119.8c0.4 2.4-0.7 4.2-2.5 4-1.8-0.2-3.7-2.3-4.1-4.7-0.4-2.4 0.8-4.2 2.6-4 1.8 0.2 3.6 2.3 4 4.7z"/>
	<path id="Layer" class="s6" d="m232.2 134.9l-6.6-0.3c-1.5-0.1-3-1.7-3.4-3.7-0.8-4.5 1.4-7.8 4.8-7.6 3.3 0.3 6.5 4 7.2 8.2 0.3 2-0.6 3.5-2 3.4z"/>
	<path id="Layer" class="s3" d="m238.5 191.3c-1.3 0.2-2.6-1.1-2.9-2.8l-6.9-40.5c-0.3-1.8 0.5-3.2 1.8-3.2 1.3 0 2.6 1.4 2.9 3.1l6.8 39.8c0.4 1.8-0.4 3.3-1.7 3.6z"/>
	<path id="Layer" class="s6" d="m233.7 177l1.9 11.3c0.3 1.7 1.4 3 2.7 3 1.3 0 2.3-1.7 2-3.6l-1.9-11.2c-0.3-1.7-1.6-3.1-2.8-2.9-1.4 0.1-2.2 1.6-1.9 3.4z"/>
	<path id="Layer" class="s3" d="m647.4 245.7l-98.5-11.5q-1-0.1-2-0.6-0.9-0.5-1.6-1.3-0.6-0.8-1-1.8-0.3-1.1-0.2-2.1l7.6-107.2q0.1-1 0.5-1.8 0.4-0.9 1-1.6 0.7-0.7 1.6-1.1 0.8-0.4 1.8-0.5l102.6-10.8q1-0.1 1.9 0.2 0.9 0.3 1.5 1 0.7 0.7 1.1 1.5 0.3 0.9 0.2 1.9l-11.7 131.8q-0.1 0.9-0.5 1.6-0.4 0.8-1.1 1.3-0.7 0.6-1.5 0.8-0.8 0.3-1.7 0.2z"/>
	<path id="Layer" class="s4" d="m643.1 245.7l-99-11.6q-1-0.1-2-0.6-0.9-0.5-1.6-1.3-0.6-0.8-1-1.8-0.3-1.1-0.2-2.1l7.6-107.8q0.1-1 0.5-1.8 0.4-0.9 1-1.6 0.7-0.7 1.6-1.2 0.8-0.4 1.8-0.5l103.1-10.9q1-0.1 1.9 0.2 0.9 0.3 1.5 1 0.7 0.7 1.1 1.5 0.3 0.9 0.2 1.9l-11.7 132.5q0 0.9-0.4 1.7-0.4 0.8-1.1 1.4-0.7 0.6-1.6 0.8-0.8 0.3-1.7 0.2z"/>
	<path id="Layer" class="s3" d="m580.9 144l-24.3 1.2q-0.4 0-0.7-0.1-0.3-0.2-0.6-0.4-0.2-0.3-0.3-0.6-0.1-0.3-0.1-0.7l1-14.5q0-0.3 0.1-0.6 0.2-0.2 0.4-0.4 0.2-0.2 0.4-0.4 0.3-0.1 0.6-0.1l24.4-2q0.4 0 0.7 0.1 0.4 0.1 0.6 0.4 0.3 0.2 0.4 0.6 0.1 0.3 0.1 0.7l-1.2 15.3q0 0.3-0.1 0.6-0.1 0.2-0.4 0.4-0.2 0.3-0.4 0.4-0.3 0.1-0.6 0.1z"/>
	<path id="Layer" class="s5" d="m593.6 154.7l-2.7 34.9-39.2-1.2 0.5-7.4 5.4-7.2q0.4-0.5 0.9-0.8 0.5-0.3 1.2-0.4 0.6 0 1.2 0.2 0.5 0.2 1 0.6 0.5 0.5 1.2 0.7 0.6 0.2 1.3 0.1 0.7-0.2 1.2-0.6 0.6-0.4 0.9-1l4.3-8.9q0.3-0.7 0.9-1.1 0.7-0.4 1.4-0.5 0.8-0.1 1.4 0.2 0.7 0.3 1.2 0.9l5.1 6.4q0.5 0.6 1.1 0.8 0.7 0.3 1.4 0.3 0.7-0.1 1.3-0.5 0.6-0.4 1-1z"/>
	<path id="Layer" class="s5" d="m555.6 223.1q-0.3 0-0.6-0.2-0.2-0.1-0.4-0.3-0.2-0.2-0.3-0.5-0.1-0.3-0.1-0.6l0.8-11.2q0-0.3 0.2-0.6 0.1-0.2 0.3-0.4 0.2-0.2 0.5-0.3 0.3-0.1 0.6-0.1 0.3 0 0.6 0.2 0.3 0.1 0.5 0.3 0.2 0.3 0.3 0.6 0 0.3 0 0.6l-0.8 11.2q0 0.3-0.2 0.6-0.1 0.2-0.3 0.4-0.2 0.2-0.5 0.3-0.3 0-0.6 0z"/>
	<path id="Layer" class="s5" d="m568.6 222.8l1.2-15.9q0-0.3 0.2-0.6 0.1-0.2 0.3-0.4 0.2-0.2 0.5-0.3 0.3-0.1 0.6-0.1h0.2q0.3 0 0.6 0.2 0.3 0.1 0.5 0.3 0.2 0.3 0.3 0.6 0 0.3 0 0.6l-1.2 15.9q0 0.3-0.2 0.6-0.1 0.3-0.3 0.5-0.3 0.2-0.6 0.3-0.3 0-0.6 0h-0.2q-0.3-0.1-0.5-0.2-0.3-0.2-0.4-0.4-0.2-0.3-0.3-0.5-0.1-0.3-0.1-0.6z"/>
	<path id="Layer" class="s5" d="m583 224l1.6-20.3q0-0.3 0.2-0.6 0.2-0.3 0.4-0.5 0.2-0.3 0.6-0.4 0.3-0.1 0.6-0.1 0.4 0 0.7 0.2 0.3 0.1 0.5 0.4 0.3 0.3 0.4 0.6 0.1 0.3 0 0.7l-1.6 20.3q0 0.4-0.2 0.7-0.1 0.3-0.4 0.5-0.3 0.2-0.6 0.3-0.3 0.1-0.7 0.1-0.3-0.1-0.6-0.3-0.3-0.1-0.5-0.4-0.2-0.3-0.3-0.6-0.1-0.3-0.1-0.6z"/>
	<path id="Layer" class="s6" d="m597.4 225.3l2.1-25q0-0.3 0.2-0.6 0.2-0.3 0.4-0.5 0.2-0.3 0.6-0.4 0.3-0.1 0.6-0.1h0.2q0.4 0 0.7 0.2 0.3 0.1 0.5 0.4 0.3 0.3 0.4 0.6 0.1 0.3 0 0.7l-2.1 25q0 0.4-0.2 0.7-0.1 0.3-0.4 0.5-0.3 0.2-0.6 0.3-0.3 0.1-0.7 0.1h-0.2q-0.3-0.1-0.6-0.2-0.3-0.2-0.5-0.5-0.2-0.2-0.3-0.5-0.1-0.4-0.1-0.7z"/>
	<path id="Layer" class="s6" d="m611.8 226.7l2.5-29.7q0-0.3 0.2-0.6 0.2-0.3 0.4-0.5 0.2-0.3 0.6-0.4 0.3-0.1 0.6-0.1h0.4q0.4 0 0.7 0.2 0.3 0.1 0.5 0.4 0.3 0.3 0.4 0.6 0.1 0.3 0 0.7l-2.5 29.7q0 0.4-0.2 0.7-0.1 0.3-0.4 0.5-0.3 0.2-0.6 0.3-0.3 0.1-0.7 0.1h-0.3q-0.3 0-0.6-0.2-0.3-0.2-0.6-0.4-0.2-0.3-0.3-0.6-0.1-0.4-0.1-0.7z"/>
	<path id="Layer" class="s7" d="m628.3 229.9h-0.5q-0.3 0-0.6-0.2-0.3-0.2-0.6-0.4-0.2-0.3-0.3-0.6-0.1-0.4-0.1-0.7l2.9-34.4q0-0.3 0.2-0.6 0.2-0.3 0.4-0.5 0.2-0.3 0.6-0.4 0.3-0.1 0.6-0.1h0.5q0.4 0 0.7 0.2 0.3 0.1 0.5 0.4 0.3 0.3 0.4 0.6 0.1 0.3 0.1 0.7l-2.9 34.4q0 0.3-0.2 0.7-0.2 0.3-0.4 0.5-0.3 0.2-0.6 0.3-0.4 0.1-0.7 0.1z"/>
	<path id="Layer" class="s6" d="m629 159.5l4.3 7.5c-3.6 4.8-8.1 7.8-12.8 7.8-9.2 0-15.5-11.5-14.3-25.7 1.2-14.2 9.4-26.5 18.8-27.2 4.8-0.4 8.9 2.3 11.7 6.9l-5.6 7.9c-1.6-2.8-4.1-4.4-7-4.3-5.6 0.4-10.7 7.7-11.4 16.4-0.7 8.7 3.2 15.6 8.7 15.5 2.7 0 5.4-1.8 7.6-4.8z"/>
	<path id="Layer" class="s5" d="m640.1 147.8c-0.7 7.5-3.2 14.4-6.8 19.3l-4.3-7.5q0.9-1.3 1.6-2.6 0.7-1.4 1.2-2.9 0.5-1.4 0.8-2.9 0.3-1.6 0.4-3.1 0.2-1.5 0.1-2.9 0-1.5-0.3-2.9-0.3-1.4-0.7-2.8-0.5-1.4-1.2-2.7l5.6-7.9c2.8 4.6 4.2 11.3 3.6 18.9z"/>
	<path id="Layer" class="s3" d="m646.3 115.5c0.1-0.9-0.3-1.6-1-1.6q-0.3 0.1-0.5 0.2-0.2 0.2-0.4 0.4-0.2 0.3-0.2 0.5-0.1 0.3-0.1 0.6c-0.1 0.9 0.3 1.6 0.9 1.6 0.6 0 1.2-0.7 1.3-1.7z"/>
	<path id="Layer" class="s3" d="m652.4 115c0.1-0.9-0.4-1.6-1-1.6q-0.3 0.1-0.5 0.3-0.3 0.1-0.4 0.4-0.2 0.2-0.3 0.5-0.1 0.3-0.1 0.6c-0.1 0.9 0.4 1.6 1 1.6 0.6 0 1.2-0.9 1.3-1.8z"/>
	<path id="Layer" class="s4" d="m520.9 154.4l-32.7 2q-0.6 0-1.2-0.2-0.5-0.2-1-0.6-0.4-0.5-0.6-1-0.2-0.6-0.2-1.2l4.3-64.5q0-0.6 0.3-1.2 0.2-0.6 0.7-1 0.4-0.5 0.9-0.8 0.6-0.3 1.2-0.4l33.4-6q0.6-0.1 1.3 0.1 0.6 0.1 1.1 0.6 0.4 0.4 0.7 1 0.2 0.6 0.2 1.2l-4.9 68.4q0 0.7-0.3 1.3-0.3 0.7-0.7 1.2-0.5 0.5-1.2 0.8-0.6 0.3-1.3 0.3z"/>
	<path id="Layer" class="s6" d="m518.4 153.7l-32.7 2q-0.6 0-1.2-0.2-0.5-0.2-1-0.6-0.4-0.5-0.6-1-0.2-0.6-0.2-1.2l4.3-64.5q0-0.6 0.3-1.2 0.2-0.6 0.7-1 0.4-0.5 0.9-0.8 0.6-0.3 1.2-0.4l33.4-6q0.6-0.1 1.3 0.1 0.6 0.1 1.1 0.6 0.4 0.4 0.7 1 0.2 0.6 0.2 1.2l-4.9 68.4q0 0.7-0.3 1.3-0.3 0.7-0.7 1.2-0.5 0.5-1.2 0.8-0.6 0.3-1.3 0.3z"/>
	<path id="Layer" class="s8" d="m506.5 87.6l-4 0.7c-0.4 0.1-0.7-0.2-0.7-0.7q0-0.2 0.1-0.3 0.1-0.2 0.2-0.3 0.1-0.1 0.2-0.2 0.1-0.1 0.3-0.1l4-0.7c0.4-0.1 0.7 0.2 0.7 0.7q0 0.2-0.1 0.3 0 0.2-0.1 0.3-0.1 0.1-0.3 0.2-0.1 0.1-0.3 0.1z"/>
	<path id="Layer" class="s8" d="m509.7 87.1l-0.4 0.1c-0.4 0.1-0.7-0.2-0.7-0.7q0-0.2 0.1-0.3 0-0.2 0.1-0.3 0.2-0.1 0.3-0.2 0.1-0.1 0.3-0.1l0.4-0.1c0.4-0.1 0.7 0.2 0.7 0.7q0 0.2-0.1 0.3 0 0.2-0.1 0.3-0.2 0.1-0.3 0.2-0.1 0.1-0.3 0.1z"/>
	<path id="Layer" class="s4" d="m504.1 95.4l-10.1 1.6q-0.3 0-0.6-0.1-0.2-0.1-0.4-0.3-0.2-0.2-0.3-0.4-0.1-0.3-0.1-0.6 0-0.3 0.2-0.6 0.1-0.3 0.3-0.6 0.2-0.2 0.5-0.4 0.3-0.1 0.6-0.2l10.1-1.6q0.3-0.1 0.6 0 0.3 0.1 0.5 0.3 0.2 0.2 0.3 0.5 0.1 0.3 0 0.6 0 0.3-0.2 0.6-0.1 0.3-0.3 0.6-0.2 0.2-0.5 0.4-0.3 0.1-0.6 0.2z"/>
	<path id="Layer" class="s5" d="m516.9 113.6l-24.3 3.1q-0.3 0-0.5 0-0.3-0.1-0.5-0.3-0.2-0.2-0.3-0.5-0.1-0.2-0.1-0.5l0.9-13q0-0.2 0.1-0.4 0.1-0.2 0.2-0.3 0.1-0.2 0.3-0.3 0.2-0.1 0.4-0.1l24.4-3.7q0.3 0 0.5 0 0.3 0.1 0.5 0.3 0.2 0.2 0.3 0.5 0.1 0.2 0.1 0.5l-1 13.6q0 0.2-0.1 0.4-0.1 0.2-0.2 0.3-0.1 0.2-0.3 0.3-0.2 0.1-0.4 0.1z"/>
	<path id="Layer" class="s4" d="m501.9 125.9l-10.1 1.1q-0.3 0-0.6-0.1-0.2-0.1-0.4-0.3-0.2-0.2-0.3-0.4-0.1-0.3-0.1-0.6 0-0.3 0.1-0.6 0.2-0.3 0.4-0.5 0.2-0.3 0.5-0.4 0.3-0.2 0.6-0.2l10.1-1.1q0.3 0 0.6 0 0.2 0.1 0.5 0.3 0.2 0.3 0.3 0.5 0 0.3 0 0.6 0 0.3-0.1 0.6-0.2 0.3-0.4 0.5-0.2 0.3-0.5 0.4-0.3 0.2-0.6 0.2z"/>
	<path id="Layer" class="s7" d="m500.4 148.2l-10 0.7c-0.8 0.1-1.4-0.6-1.4-1.5q0-0.3 0.2-0.6 0.1-0.3 0.3-0.5 0.2-0.3 0.5-0.4 0.3-0.1 0.6-0.2l10-0.8q0.3 0 0.6 0.1 0.3 0.1 0.5 0.3 0.2 0.2 0.3 0.5 0 0.3 0 0.6 0 0.3-0.1 0.6-0.1 0.4-0.4 0.6-0.2 0.2-0.5 0.4-0.3 0.2-0.6 0.2z"/>
	<path id="Layer" class="s5" d="m499.6 140.9l-8.7 0.7q-0.3 0-0.5-0.1-0.3 0-0.5-0.2-0.2-0.2-0.2-0.5-0.1-0.2-0.1-0.5l0.5-8q0-0.2 0.1-0.4 0.1-0.2 0.2-0.4 0.2-0.1 0.4-0.2 0.2-0.1 0.4-0.1l8.8-0.9q0.3 0 0.5 0.1 0.3 0 0.5 0.2 0.2 0.2 0.2 0.5 0.1 0.2 0.1 0.5l-0.6 8.2q0 0.2-0.1 0.4-0.1 0.2-0.3 0.3-0.1 0.2-0.3 0.3-0.2 0.1-0.4 0.1z"/>
	<path id="Layer" class="s9" d="m515 139.6l-9.3 0.8q-0.3 0-0.5-0.1-0.3-0.1-0.4-0.3-0.2-0.1-0.3-0.4-0.1-0.2-0.1-0.5l0.6-8.3q0-0.2 0.1-0.4 0.1-0.2 0.2-0.4 0.2-0.1 0.4-0.2 0.2-0.1 0.4-0.1l9.3-0.9q0.3 0 0.5 0.1 0.3 0 0.5 0.2 0.2 0.2 0.2 0.5 0.1 0.2 0.1 0.5l-0.6 8.4q0 0.2-0.1 0.4-0.1 0.2-0.2 0.4-0.2 0.1-0.4 0.2-0.2 0.1-0.4 0.1z"/>
	<path id="Layer" class="s10" d="m222 72.4c-10.2 0-18.4-8.2-18.4-18.4 0-10.2 8.2-18.4 18.4-18.4 10.2 0 18.4 8.2 18.4 18.4 0 10.2-8.2 18.4-18.4 18.4z"/>
	<path id="Layer" fill-rule="evenodd" class="s6" d="m215.1 53.5q-0.4-0.6-0.7-1.3-0.2-0.7-0.2-1.4 0-0.7 0.2-1.4 0.3-0.7 0.7-1.3 0.5-0.5 1.1-0.7 0.6-0.3 1.3-0.3 0.7 0 1.3 0.3 0.6 0.2 1.1 0.7 0.2 0.3 0.4 0.6 0.2 0.3 0.3 0.7 0.1 0.3 0.2 0.7 0 0.3 0 0.7 0 0.4 0 0.7-0.1 0.4-0.2 0.7-0.1 0.4-0.3 0.7-0.2 0.3-0.4 0.6-0.5 0.5-1.1 0.7-0.6 0.3-1.3 0.3-0.7 0-1.3-0.3-0.6-0.2-1.1-0.7zm3.7-1q0.1-0.2 0.2-0.4 0.1-0.2 0.1-0.5 0.1-0.2 0.1-0.4 0-0.3 0-0.5 0-0.2 0-0.5 0-0.2-0.1-0.4 0-0.3-0.1-0.5-0.1-0.2-0.2-0.4-0.2-0.3-0.5-0.4-0.3-0.2-0.7-0.2-0.4 0-0.7 0.2-0.3 0.1-0.5 0.4-0.1 0.2-0.2 0.4-0.1 0.2-0.2 0.5-0.1 0.2-0.1 0.4 0 0.3 0 0.5 0 0.2 0 0.5 0.1 0.2 0.1 0.4 0.1 0.3 0.2 0.5 0.1 0.2 0.2 0.4 0.1 0.1 0.2 0.3 0.2 0.1 0.3 0.1 0.2 0.1 0.4 0.2 0.1 0 0.3 0 0.2 0 0.3 0 0.2-0.1 0.4-0.2 0.1 0 0.3-0.2 0.1-0.1 0.2-0.2zm7.2-5.4h0.9c0.3 0 0.5 0.4 0.3 0.6l-8.8 12.9c-0.1 0.1-0.2 0.2-0.3 0.2h-0.9c-0.3 0-0.5-0.4-0.3-0.6l8.8-12.9c0-0.1 0.1-0.2 0.3-0.2zm-1.8 12.9q-0.4-0.6-0.7-1.3-0.2-0.7-0.2-1.4 0-0.7 0.2-1.4 0.3-0.7 0.7-1.3 0.5-0.5 1.1-0.7 0.6-0.3 1.3-0.3 0.7 0 1.3 0.3 0.6 0.2 1.1 0.7 0.4 0.6 0.7 1.3 0.2 0.7 0.2 1.4 0 0.7-0.2 1.4-0.3 0.7-0.7 1.3-0.2 0.3-0.5 0.4-0.3 0.2-0.6 0.4-0.3 0.1-0.6 0.2-0.4 0-0.7 0-0.3 0-0.7-0.1-0.3 0-0.6-0.2-0.3-0.1-0.6-0.3-0.3-0.2-0.5-0.4zm3.6-1.1q0.2-0.4 0.3-0.8 0.1-0.5 0.1-0.9 0-0.4-0.1-0.9-0.1-0.4-0.3-0.8-0.1-0.2-0.3-0.3-0.2-0.2-0.4-0.2-0.2-0.1-0.4-0.2-0.2 0-0.4 0-0.1 0-0.3 0.1-0.1 0-0.3 0.1-0.1 0.1-0.2 0.2-0.1 0.1-0.2 0.2-0.1 0.2-0.2 0.4-0.1 0.2-0.2 0.5-0.1 0.2-0.1 0.4 0 0.3 0 0.5 0 0.2 0 0.5 0.1 0.2 0.1 0.4 0.1 0.3 0.2 0.5 0.1 0.2 0.2 0.4 0.1 0.1 0.2 0.2 0.1 0.1 0.2 0.2 0.2 0.1 0.3 0.1 0.1 0.1 0.3 0.1 0.2 0 0.4 0 0.3 0 0.5-0.1 0.2-0.1 0.3-0.3 0.2-0.1 0.3-0.3z"/>
	<path id="Layer" class="s4" d="m474.1 79.3c-20.2 12.8-41.7 11.8-47-1-4.7-11.2 5.3-27.6 21.6-37.5 16-9.8 34.8-11.3 43.1-2.7 9.3 9.7 2 28.6-17.7 41.2z"/>
	<path id="Layer" class="s5" d="m471.6 75.2c-20.2 12.8-41.7 11.8-47-1-4.7-11.2 5.3-27.6 21.6-37.5 16-9.8 34.8-11.3 43.1-2.7 9.3 9.7 2 28.6-17.7 41.2z"/>
	<path id="Layer" class="s6" d="m465.9 66.7c-12.1 7.6-25.3 7.4-29-0.1-3.5-6.9 2.6-17.4 13.2-23.9 10.6-6.5 22.6-7.2 27.5-1.4 5.2 6.3 0.3 17.8-11.7 25.4z"/>
	<path id="Layer" class="s7" d="m460.8 58.9c-4.8 3-10.1 3-11.8 0.2-1.7-2.8 0.7-7.2 5.3-10 4.6-2.8 9.6-3 11.5-0.4 1.9 2.6-0.3 7.2-5 10.2z"/>
	<path id="Layer" class="s4" d="m456 49.4q-0.7 0.4-1.4 0.5-0.8 0.1-1.6-0.1-0.7-0.1-1.4-0.6-0.6-0.4-1-1.1l-9.6-19.1q-0.2-0.4-0.2-0.8 0-0.4 0.1-0.8 0.1-0.3 0.3-0.7 0.3-0.3 0.6-0.5 0.4-0.2 0.8-0.3 0.4 0 0.8 0 0.4 0.1 0.7 0.3 0.4 0.3 0.6 0.6l12.5 17.3q0.4 0.6 0.6 1.4 0.1 0.8-0.1 1.5-0.1 0.8-0.6 1.4-0.4 0.6-1.1 1z"/>
	<path id="Layer" class="s6" d="m443.4 32.7l-4.3-0.3q-0.4 0-0.8 0.2-0.3 0.2-0.5 0.5-0.2 0.4-0.2 0.8 0.1 0.4 0.3 0.7 0.8 1 1.7 1.9 0.9 1 1.9 1.7 1 0.8 2.2 1.4 1.1 0.6 2.3 1.1l2 0.8c0.2 0.1 0.5-0.2 0.3-0.4l-3.9-7.7c-0.1-0.4-0.5-0.6-1-0.7z"/>
	<path id="Layer" class="s6" d="m447 30.5l1.8-3.9q0.2-0.4 0.5-0.6 0.3-0.2 0.7-0.2 0.5 0 0.8 0.2 0.3 0.2 0.5 0.6 0.6 1.2 1 2.4 0.3 1.2 0.5 2.5 0.3 1.3 0.3 2.5 0 1.3-0.2 2.6l-0.3 2.2c0 0.2-0.4 0.3-0.5 0.1l-5-7q-0.1-0.2-0.1-0.3-0.1-0.2-0.1-0.4 0-0.2 0-0.4 0-0.1 0.1-0.3z"/>
	<path id="Layer" class="s11" d="m455.5 48.6l3.2 5.4"/>
	<path id="Layer" class="s12" d="m367 488.5c-2.2-3.9-23.5 0-23.5 0 0 0 0.4 8.3 0.6 14.6q2.7 1.1 5.5 1.8 2.8 0.6 5.7 0.8 2.9 0.2 5.8-0.2 2.9-0.3 5.7-1.1c-0.1-6.5 0.2-15.9 0.2-15.9z"/>
	<path id="Layer" class="s5" d="m344 503.1c0.1 2.9 0.1 5.3 0.1 6.3 0 1.2-1.4 3.4-1.9 6.8-0.4 2.5 0 5.9-0.5 8.9-0.5 3.6-1.1 7.2-1.4 10.6-0.9 9.9 4.2 11 9.9 11.7 5.7 0.7 24.6 1.2 25.2-4.3 0.6-5.5-4.8-15.7-6-20.4-1.2-4.7-1.9-10-2.5-13.1-0.1-0.9-0.2-2.8-0.2-5.2q-2.8 0.8-5.7 1.1-2.9 0.3-5.8 0.2-2.9-0.2-5.7-0.8-2.8-0.7-5.5-1.8z"/>
	<path id="Layer" class="s4" d="m375.5 543c-0.6 5.5-19.5 4.9-25.2 4.3-5.7-0.6-10.8-1.8-9.9-11.7 0.3-3.3 0.8-7 1.4-10.6 0.5-3 0-6.4 0.5-8.9q0.1-0.8 0.3-1.5 0.2-0.8 0.4-1.5 0.3-0.7 0.5-1.5 0.3-0.7 0.6-1.4c0.4 2.6 2.4 3.4 2.6 9.1 0.3 5.9-0.3 8.9 6.6 7 9.1-2.5 12.6 0.6 14.5-0.9 1.6-1.4 1-6.2 0.9-7.1 0.3 1.4 0.6 2.9 0.9 4.3 1 4.7 6.5 15 5.9 20.4z"/>
	<path id="Layer" class="s13" d="m364.4 497.5q0.3-0.1 0.6-0.2 0.3-0.1 0.7-0.2 0.3-0.1 0.6-0.2 0.3-0.1 0.6-0.2c0.1-4.4 0.2-8.3 0.2-8.3-2.2-3.9-23.5 0-23.5 0 0 0 0.1 3 0.3 6.8 6.2 2.4 13.3 3.9 20.5 2.3z"/>
	<path id="Layer" class="s9" d="m359.3 530.5c-3.1 0-5.6-1.6-5.6-3.6 0-2 2.5-3.6 5.6-3.6 3.1 0 5.6 1.6 5.6 3.6 0 2-2.5 3.6-5.6 3.6z"/>
	<path id="Layer" class="s5" d="m401.6 505.6c0.5 3.9 0.8 7.3 0.6 8.2-0.5 2.1-2.1 10.9-3.4 14.7-1.3 3.8-8.7 14.6-3.8 17.9 4.9 3.3 29.9 1.3 32.6-1 2.7-2.3 1.8-8.7 0.8-16.9-1-8.2-4-16.6-4-17.8 0-0.4-0.1-3.5-0.2-7.3-6.8 3.4-14.7 4.7-22.6 2.2z"/>
	<path id="Layer" class="s12" d="m399.8 493c0 0 1.1 6.8 1.8 12.6 7.9 2.5 15.8 1.2 22.6-2.2-0.3-7.2-0.7-17.2-1.1-17.8-0.5-0.9-21.1-1.3-23.3 7.4z"/>
	<path id="Layer" class="s4" d="m427.7 545.4c-2.7 2.3-27.7 4.4-32.6 1-4.9-3.4 2.5-14.2 3.8-17.9 0.9-2.7 2-8.1 2.7-11.7-0.2 1.2-1.8 10.6 0 11.2 1.8 0.6 6.7-3.3 13-1.9 6.3 1.4 9.5 2.3 9.5-1.6 0-3.9-1.2-10.3-0.6-11.4 0.6-1.1 1-2.3 1-2.3 0 1.2 3 9.6 4 17.8 1 8.2 1.9 14.4-0.8 16.8z"/>
	<path id="Layer" class="s13" d="m423.9 496.5c-0.2-5.4-0.5-10.5-0.8-10.9-0.5-0.9-21.2-1.3-23.4 7.4 0 0 0.4 2.8 1 6.3 8.3 1.8 16.1 0.3 23.2-2.8z"/>
	<path id="Layer" class="s9" d="m410.1 531.6c-3.1 0-5.6-1.6-5.6-3.6 0-2 2.5-3.6 5.6-3.6 3.1 0 5.6 1.6 5.6 3.6 0 2-2.5 3.6-5.6 3.6z"/>
	<path id="Layer" class="s4" d="m420.2 237.6c0 0 9.7 17.7 4.2 61.7-5.5 44-8.3 55.1-7.3 57.9 1 2.8 5.9 23.9 6.2 56.5 0.3 32.6 1 48.2 3.9 57.3 2.9 9.1 4.2 15.9-3.4 21.3-7.6 5.4-20.8 4.7-27 1.8-6.2-2.9-6.5-7.8-6-18.7 0.5-10.9-4.9-44.7-9.4-65.2-2.7-12.4-5-26.7-6.5-37q-0.3-1.7-0.5-3.3-0.2-1.7-0.4-3.4-0.2-1.7-0.4-3.3-0.1-1.7-0.2-3.4c0-3.9-6-61.3-6-64.2 0-2.9-6.5-4.9-8.1-17.2-1.6-12.3 1.3-40.7 1.3-40.7 0 0 54.1-7.8 59.6-0.1z"/>
	<path id="Layer" class="s4" d="m329.2 234.2c0 0-10.9 26.2-4.7 73.8 6.2 47.6 7 52.2 7.3 54.3 0.3 2.1 0.5 37.7 3.4 68.6 2.9 30.9-2.9 46.8 0 54.3 2.9 7.5 12.2 9.4 18.7 9.1 6.5-0.3 18.7-2.6 18.7-14.6 0-12-1.6-30.9 0-56.1 1.6-25.2 4-50.9 4.7-62.9 0.7-12 8-81.6 9.3-91.5 1.3-9.9-3.3-26-21.4-32.3-18.1-6.1-36-2.7-36-2.7z"/>
	<path id="Layer" fill-rule="evenodd" class="s14" d="m322.6 276.4c0 0 5.9-1.4 8-8.8q0.4-1.5 0.8-3.1 0.4-1.5 0.7-3 0.4-1.6 0.6-3.2 0.3-1.5 0.5-3.1"/>
	<path id="Layer" fill-rule="evenodd" class="s14" d="m425.9 279c0 0-7.7-3.6-10.1-11.8-2.4-8.2-2.1-12.8-2.1-12.8"/>
	<path id="Layer" fill-rule="evenodd" class="s14" d="m353.8 287.8c5.7 0.2 13.4 6.6 13.4 6.6q1-0.8 2.1-1.6 1-0.7 2.1-1.4 1.1-0.7 2.2-1.4 1.1-0.6 2.3-1.2"/>
	<path id="Layer" class="s14" d="m351.2 377.8c-8.1 0-14.6-6.7-14.6-15 0-8.3 6.5-15 14.6-15 8.1 0 14.6 6.7 14.6 15 0 8.3-6.5 15-14.6 15z"/>
	<path id="Layer" class="s14" d="m392.9 377.8c-8.1 0-14.6-6.7-14.6-15 0-8.3 6.5-15 14.6-15 8.1 0 14.6 6.7 14.6 15 0 8.3-6.5 15-14.6 15z"/>
	<path id="Layer" fill-rule="evenodd" class="s14" d="m374.9 373.1q-0.3-1.7-0.5-3.3-0.2-1.7-0.4-3.4-0.2-1.7-0.4-3.3-0.1-1.7-0.2-3.4c0-3.9-6-61.3-6-64.2 0-2.9-6.5-4.9-8.1-17.2"/>
	<path id="Layer" class="s12" d="m265.6 97.7c0 0-0.9-3-1.3-11.4-0.1-2 3.1-6.4 3.5-7.7 0.4-1.3 3.4-0.8 2.6 3.6-0.8 4.4 2.3 12.5 1.4 15.6-0.9 3.1-6.2 1.3-6.2-0.1z"/>
	<path id="Layer" class="s4" d="m257.4 71l27 55.8q0.3 0.6 0.7 1.1 0.5 0.6 1.1 0.9 0.6 0.4 1.2 0.6 0.7 0.1 1.4 0.1l40.5-0.7q0.6 0 1.2-0.3 0.5-0.3 0.9-0.8 0.3-0.6 0.3-1.2 0.1-0.6-0.2-1.2l-23.8-56q-0.3-0.7-0.7-1.2-0.5-0.6-1.1-0.9-0.6-0.4-1.3-0.6-0.7-0.2-1.4-0.2l-43.6 1q-0.6 0-1.2 0.3-0.5 0.4-0.9 0.9-0.3 0.5-0.3 1.2-0.1 0.6 0.2 1.2z"/>
	<path id="Layer" class="s6" d="m272.8 63.3l15-0.6q0.5 0 0.9 0.1 0.5 0.2 0.9 0.5 0.4 0.3 0.7 0.6 0.3 0.4 0.4 0.9l0.6 2q0.1 0.2 0 0.5 0 0.2-0.1 0.4-0.2 0.2-0.4 0.3-0.2 0.1-0.4 0.1l-18.1 0.5q-0.2 0-0.3-0.1-0.2 0-0.3-0.1-0.2-0.1-0.3-0.3-0.1-0.1-0.1-0.3l-0.3-2.2q-0.1-0.4 0-0.8 0.1-0.4 0.4-0.8 0.2-0.3 0.6-0.5 0.4-0.2 0.8-0.2z"/>
	<path id="Layer" class="s12" d="m312.2 162.6l-3.4 2.8c0 0-4.5-14.2-8.6-23.9-4.1-9.7-6.7-22-6.6-23.4 0.1-1.4 1.3-5.4-1.4-9.6q-0.5-0.9-1.2-1.7-0.6-0.8-1.3-1.5-0.8-0.7-1.6-1.4-0.8-0.6-1.7-1.1c-0.6-0.3 2.3-1.1 6.6-2.9 4.3-1.8 2.3-3.8-0.3-3.5-2.6 0.3-9.1 1.2-9.1 1.2l5.1-4c1.9-1.5 5.9-3.1 4.9-4.7-0.9-1.4-5.1 0.1-7 0.7-1.9 0.6-8.6 3.9-8.6 3.9 0 0 4-4.7 5.8-7 1.8-2.3 6.6-4.5 6-6.8-0.6-2.3-6.5 1-9.3 2.7-2.8 1.7-8.1 7.1-8.1 7.1 0 0 0.2-5.2 0.4-7.5 0.2-2.3 1.6-8.1-0.1-9.5-2.2-1.8-3.4 3.8-4.5 8.5-1.1 4.7-3.7 14.2-3.1 17 0.6 2.8 4 6.2 6.9 10 2.9 3.8 6 8.3 6.5 9.6 0.5 1.3 4.2 61.2 7.5 69.4 3.3 8.2 10.9 22.3 42.5-2.7 0 0 2.9-17.5-2.9-22.2-5.9-4.5-13.4 0.5-13.4 0.5z"/>
	<path id="Layer" class="s6" d="m350.9 130.5c0 0-7.7 1.4-17.4 11.8-9.7 10.4-21.3 20.3-21.3 20.3 0 0 9 20 14.4 26 0 0 18.9-12.6 26.3-20 7.4-7.4 8.7-35.5-2-38.1z"/>
	<path id="Layer" fill-rule="evenodd" class="s11" d="m316.2 159.1c0 0 6.3 15.2 14.7 26.5"/>
	<path id="Layer" fill-rule="evenodd" class="s15" d="m308.8 165.4q0.4 1.1 0.8 2.2 0.4 1.1 0.7 2.2 0.4 1.1 0.7 2.2 0.3 1.1 0.6 2.2"/>
	<path id="Layer" fill-rule="evenodd" class="s15" d="m283.6 97.6q-0.3 0.1-0.6 0.1-0.2 0.1-0.5 0.2-0.3 0-0.6 0.1-0.2 0.1-0.5 0.2-0.3 0.1-0.6 0.2-0.3 0.1-0.6 0.3-0.2 0.1-0.5 0.3-0.3 0.2-0.5 0.4"/>
	<path id="Layer" fill-rule="evenodd" class="s15" d="m286.3 102.8q-0.2 0.1-0.5 0.2-0.2 0.2-0.4 0.3-0.3 0.1-0.5 0.3-0.2 0.1-0.4 0.3"/>
	<path id="Layer" fill-rule="evenodd" class="s15" d="m278 93.5q-0.3 0.2-0.6 0.4-0.4 0.3-0.6 0.6-0.3 0.2-0.6 0.5-0.3 0.3-0.5 0.6"/>
	<path id="Layer" fill-rule="evenodd" class="s15" d="m272.4 89.6q-0.3 0.2-0.6 0.4-0.3 0.3-0.6 0.5-0.3 0.3-0.6 0.6-0.2 0.2-0.5 0.5"/>
	<path id="Layer" class="s4" d="m278.7 118.9c0 0 3.9 4.9 15.2 1.2 0 0 1.2 4.5 1.3 5.7 0 0-9.4 3.8-15.9-0.8q-0.1-0.8-0.2-1.5-0.1-0.8-0.2-1.5-0.1-0.8-0.1-1.6-0.1-0.7-0.1-1.5z"/>
	<path id="Layer" class="s9" d="m283.7 127.8c-1.7 0.3-3.4-1.5-3.9-4-0.6-2.6 0.3-4.9 2-5.2 1.6-0.4 3.3 1.4 3.8 4 0.6 2.5-0.3 4.9-1.9 5.2z"/>
	<path id="Layer" class="s5" d="m346.9 133.1c2.8-2.2 5.6-4.9 30.4-5.7 28.5-0.9 42.1 2.5 46 18.8 3.9 16.3-12.5 54.3-12.5 58.7 0 4.4 10.3 25.8 11.5 35.5 0 0-13.9 15.3-49 14.8-35.1-0.5-46.8-14.8-46.8-18.5 0-3.7 12.2-24.8 13.5-34.1 1.3-9.3-10.9-21.1-10.4-33 0.5-11.9 10.9-22.1 11.5-24.7 1.4-4.8 2.8-9.5 5.8-11.8z"/>
	<path id="Layer" class="s6" d="m360.2 137.2c0 0-0.1 20 8.5 34.2 0 0 15.1-15.4 20.3-31 0 0-11.8 3.8-18.8 1.3q-1.3-0.4-2.6-1-1.3-0.5-2.5-1-1.3-0.6-2.5-1.2-1.2-0.6-2.4-1.3z"/>
	<path id="Layer" class="s9" d="m367.7 124.7q-1.4 0.5-2.7 1.4-1.3 0.8-2.4 1.9-1.1 1-1.9 2.3-0.8 1.3-1.4 2.7c-2.9 6.8-1.8 16.7 0.8 16.6 2.6-0.1 12.6-7.2 12.6-7.2 0 0-0.5-16.9-5-17.7z"/>
	<path id="Layer" class="s9" d="m372.6 142.5l5.5 7.2c2.9 3.8 5.7 8 12.9-3.6 7.2-11.6 2.6-19.5-1.6-21.4-4.2-1.9-17.4 14.1-16.8 17.8z"/>
	<path id="Layer" class="s12" d="m367.7 117q-0.1 1.7-0.2 3.5-0.1 1.7-0.3 3.5-0.2 1.7-0.4 3.4-0.2 1.8-0.5 3.5c-1 5.6 0.6 10.7 6.3 11.6 5.7 0.9 17.4-5.3 18.1-13.8 0 0-1-20.1 0.7-26.4 1.7-6.3-23.4 10.3-23.7 14.7z"/>
	<path id="Layer" class="s13" d="m385.4 116.7c-3.7 5.9-11.3 6.4-18.1 6.5-0.2 2.2-0.5 4.6-0.8 6.7 8.6-0.4 17.1-4.8 18.9-13.2z"/>
	<path id="Layer" fill-rule="evenodd" class="s16" d="m420.7 233.5c-26.8 17.5-68 19.7-92.3-2.1"/>
	<path id="Layer" fill-rule="evenodd" class="s16" d="m368.7 171.4c0 0-7.8 10.3-9.8 17.2"/>
	<path id="Layer" class="s17" d="m369.8 178.4c0.6 0 1.2 0.4 1.5 1 0.2 0.6 0.1 1.3-0.4 1.7-0.4 0.5-1.1 0.6-1.7 0.4-0.6-0.3-1-0.9-1-1.5q0-0.3 0.1-0.6 0.1-0.3 0.4-0.5 0.2-0.3 0.5-0.4 0.3-0.1 0.6-0.1z"/>
	<path id="Layer" class="s17" d="m366.2 189.4c-0.9 0-1.6-0.7-1.6-1.6 0-0.9 0.7-1.6 1.6-1.6 0.9 0 1.6 0.7 1.6 1.6 0 0.9-0.7 1.6-1.6 1.6z"/>
	<path id="Layer" class="s12" d="m436.9 162.1c0 0 7.5 17.1 11.2 30.2 3.7 13.1-0.1 21.2-8.2 25.1-8.1 3.9-14.5-6.1-26.6-36.4 0 0.1 18.1-24.1 23.6-18.9z"/>
	<path id="Layer" class="s12" d="m427.7 211.5c0 0 5 10.2 16.3 9.1 11.3-1.1 38.6-8.8 43.8-13.2 5.2-4.4 2.7-16.1-2.2-16.6-4.9-0.5-19.3 1-27.5 1.1q-1.3 0-2.6 0-1.3 0-2.6 0.1-1.3 0.1-2.5 0.3-1.3 0.2-2.6 0.4-0.5 0.1-1 0.2-0.5 0.2-1 0.3-0.5 0.2-0.9 0.3-0.5 0.2-1 0.4-0.6 0.2-1.1 0.5-0.5 0.3-1.1 0.6-0.5 0.3-1 0.6-0.5 0.3-1 0.7c-5 3.8-12 15.2-12 15.2z"/>
	<path id="Layer" fill-rule="evenodd" class="s15" d="m448 192.8q-0.5 0.1-1 0.2-0.5 0.2-1 0.3-0.5 0.2-0.9 0.3-0.5 0.2-1 0.4-0.6 0.2-1.1 0.5-0.5 0.3-1.1 0.6-0.5 0.3-1 0.6-0.5 0.3-1 0.7"/>
	<path id="Layer" class="s6" d="m401.6 139.1c2.1-5.4 8.2-8.9 13.1-7q2 0.8 3.8 1.9 1.9 1 3.6 2.4 1.7 1.3 3.1 2.9 1.5 1.5 2.7 3.3c7.7 11.3 15.2 31.7 15.2 31.7 0 0-8 5.6-28.5 12.7q-1.4-2.3-2.7-4.7-1.3-2.4-2.6-4.8-1.2-2.5-2.4-4.9-1.2-2.5-2.3-5c-2.4-5.7-6.5-19.3-3-28.5z"/>
	<path id="Layer" fill-rule="evenodd" class="s11" d="m412.4 181.7c0 0 15.4-3.9 28.4-13"/>
	<path id="Layer" class="s6" d="m454 196.2l67.8-6.9q0.6-0.1 1.2 0.1 0.6 0.1 1.1 0.5 0.5 0.4 0.8 0.9 0.2 0.6 0.3 1.2l6.9 54q0.1 0.6 0 1.1-0.2 0.6-0.5 1.1-0.4 0.5-0.8 0.8-0.5 0.3-1.1 0.4l-66.2 14.3q-0.6 0.2-1.3 0-0.6-0.1-1.1-0.5-0.6-0.3-0.9-0.9-0.3-0.6-0.4-1.2l-8.5-61.3q-0.1-0.6 0-1.3 0.2-0.6 0.6-1.1 0.3-0.5 0.9-0.8 0.6-0.3 1.2-0.4z"/>
	<path id="Layer" fill-rule="evenodd" class="s11" d="m469.8 217.1l45.3-6.5q0.4-0.1 0.7 0 0.4 0.1 0.7 0.3 0.3 0.3 0.5 0.6 0.2 0.3 0.3 0.7l4.4 26q0.1 0.4 0 0.7-0.1 0.4-0.3 0.7-0.2 0.3-0.5 0.5-0.3 0.2-0.7 0.3l-45.7 9.3q-0.4 0.1-0.8 0-0.4-0.1-0.7-0.3-0.3-0.2-0.5-0.6-0.2-0.3-0.3-0.7l-4.1-28.7q0-0.4 0.1-0.8 0.1-0.4 0.3-0.7 0.2-0.3 0.6-0.5 0.3-0.2 0.7-0.3z"/>
	<path id="Layer" class="s11" d="m507.2 211.7l5.3 30.3"/>
	<path id="Layer" class="s11" d="m476.8 224.3l23.3-3.6"/>
	<path id="Layer" class="s11" d="m478.8 232.5l23.3-4.5"/>
	<path id="Layer" class="s11" d="m480.4 240.3l23.3-4.5"/>
	<path id="Layer" class="s11" d="m511.8 218l1.5 1.1 1.7-3.2"/>
	<path id="Layer" class="s11" d="m513.1 224.8l1.5 1.1 1.8-3.1"/>
	<path id="Layer" class="s11" d="m514.4 232.1l1.5 1.1 1.7-3.1"/>
	<path id="Layer" class="s5" d="m466.7 207.3l-0.4-2.5q0-0.3 0-0.5 0.1-0.3 0.3-0.5 0.2-0.2 0.4-0.3 0.2-0.2 0.5-0.2l10.5-1.2q0.3 0 0.5 0 0.3 0.1 0.5 0.2 0.2 0.2 0.3 0.4 0.2 0.2 0.2 0.5l0.3 2.2q0 0.3 0 0.5-0.1 0.3-0.2 0.5-0.2 0.2-0.4 0.3-0.2 0.2-0.5 0.2l-10.4 1.4q-0.3 0.1-0.5 0-0.3 0-0.5-0.1-0.3-0.2-0.4-0.4-0.2-0.2-0.2-0.5z"/>
	<path id="Layer" class="s12" d="m506.4 189c-1.5-1.6-2.3-2.2-8.1-2.6-2-0.1-5.6 0.1-8.5 0.2-1.4 0-2.3-0.3-3.3-0.2-3 0.5-6.5 4-8.2 5.2-1.7 1.2-4.8 2.7-4.8 2.7l9.9-1q0.2 0 0.5 0 0.2 0 0.4 0.1 0.2 0.2 0.3 0.3 0.2 0.2 0.3 0.4 0.3 0.6 0.6 1.3 0.3 0.6 0.6 1.3 0.3 0.6 0.5 1.3 0.3 0.6 0.5 1.3c1.2 3.8 2.5 8.6 4.2 7.4 1-0.7 1-3.9 0.7-6.1 0 0.3 0.1 0.5 0.1 0.8 0.3 3.8-0.3 9.5 1.9 9.6 2 0.1 2.3-2.3 2.3-2.3q0.1 0.3 0.3 0.5 0.2 0.2 0.4 0.4 0.3 0.1 0.6 0.1 0.3 0 0.6-0.1c1.6-0.6 3.9-5.5 4.6-8.4 0.1 1.3-0.2 1.8 0.7 2.1 1.9 0.6 3.4-5.5 3.9-9.9 0.3-2.8-0.2-3.6-1-4.4z"/>
	<path id="Layer" fill-rule="evenodd" class="s15" d="m496.2 208.6c0 0 1-5.2 1.4-7.3q0.1-1.1 0.2-2.2 0.1-1.2 0.1-2.3 0-1.1-0.1-2.3-0.1-1.1-0.2-2.2-0.1-0.3-0.2-0.6-0.1-0.4-0.2-0.7-0.2-0.3-0.3-0.6-0.1-0.3-0.3-0.6"/>
	<path id="Layer" fill-rule="evenodd" class="s15" d="m502.8 201.1q0.2-1 0.4-2 0.2-1.1 0.4-2.1 0.2-1 0.3-2 0.1-1.1 0.2-2.1 0-0.4-0.1-0.8 0-0.4-0.1-0.8 0-0.4-0.1-0.7-0.1-0.4-0.2-0.8"/>
	<path id="Layer" fill-rule="evenodd" class="s15" d="m492.1 202.7q0-0.7 0.1-1.3 0-0.7 0-1.4 0-0.7 0-1.4-0.1-0.6-0.1-1.3-0.2-0.8-0.4-1.7-0.2-0.8-0.4-1.6-0.2-0.8-0.5-1.6-0.3-0.8-0.6-1.6"/>
	<path id="Layer" class="s4" d="m408.3 77.7q0-2.1-0.7-4.2-0.7-2-2-3.7-1.3-1.7-3.1-2.9-1.7-1.2-3.8-1.8c-0.1-1.6-0.6-3.2-1.3-4.6-0.7-1.4-1.7-2.7-2.9-3.8-1.2-1.1-2.6-2-4.1-2.5-1.5-0.6-3.1-0.9-4.7-0.9q-0.6 0-1.2 0.1-0.6 0-1.1 0.1-0.6 0.1-1.2 0.3-0.6 0.2-1.1 0.4-0.9-1-2-1.9-1.2-0.8-2.4-1.4-1.3-0.6-2.6-0.9-1.4-0.3-2.8-0.3-1.6 0-3.2 0.4-1.6 0.4-3 1.1-1.4 0.8-2.6 1.9-1.2 1.1-2.1 2.5c-0.4 0-0.8-0.1-1.2-0.1-2.4 0-4.7 0.7-6.7 1.9-2.1 1.2-3.7 3-4.8 5.1-1.1 2.1-1.6 4.5-1.5 6.9 0.2 2.4 1 4.7 2.4 6.6q-0.3 0.7-0.6 1.3-0.2 0.7-0.4 1.4-0.1 0.7-0.2 1.5-0.1 0.7-0.1 1.4c0 3.4 1.4 6.8 3.8 9.2 2.4 2.4 5.8 3.8 9.2 3.8 3.4 0 6.8-1.4 9.2-3.8 2.4-2.4 3.8-5.8 3.8-9.2q0-0.8-0.1-1.5-0.1-0.8-0.2-1.5-0.2-0.7-0.5-1.4-0.3-0.7-0.6-1.4 0.5 0 1-0.1 0.5-0.1 1-0.2 0.5-0.1 1-0.2 0.5-0.1 1-0.3 0.6 0.7 1.4 1.3 0.7 0.7 1.5 1.2 0.8 0.5 1.7 0.9 0.9 0.3 1.8 0.6 0.1 0.7 0.2 1.3 0.2 0.7 0.4 1.4 0.2 0.6 0.4 1.3 0.3 0.6 0.6 1.2c-2.4 3.4-3 7.7-1.7 11.7 1.3 3.9 4.4 7 8.4 8.2 3.9 1.3 8.2 0.6 11.6-1.9 3.3-2.4 5.3-6.3 5.3-10.5q0-0.8-0.1-1.7-0.1-0.8-0.3-1.6-0.2-0.8-0.6-1.6-0.3-0.8-0.7-1.5 0.6-0.8 1.1-1.7 0.5-0.9 0.8-1.9 0.3-1 0.5-2 0.1-1 0.1-2z"/>
	<path id="Layer" class="s12" d="m372 72.1c-2.1 0-4.2 0.4-6.1 1.1-2 0.8-3.8 1.9-5.3 3.3-1.5 1.4-2.8 3.1-3.7 5-0.9 1.9-1.5 3.9-1.6 6-0.3 3.9-0.7 9.3-1.4 13.8-1.2 7.8 0 19.4 12.3 22.2 12.3 2.8 24.3-9 27-19.2 2.7-10.2 5-25.1-9.5-30q-1.4-0.5-2.9-0.9-1.4-0.3-2.9-0.6-1.4-0.3-2.9-0.5-1.5-0.1-3-0.2z"/>
	<path id="Layer" class="s4" d="m389.3 99.4c0 0-1.9-1.6-2.5-8.1q0-0.3-0.2-0.6-0.1-0.3-0.3-0.5-0.2-0.2-0.4-0.4-0.3-0.1-0.6-0.2c-2.2-0.5-6.2-2.8-7.6-11.9q-1.4 1-3 1.8-1.5 0.9-3.1 1.6-1.5 0.7-3.2 1.3-1.6 0.6-3.3 1c-6.8 1.6-11.1-4.6-13.3-7.8-3.9-5.7-3.4-7.1-1.6-9.3 8.9-11 24.7-6.4 27.6-5.4 2.9 1 13.2 0.2 20.3 7.8 7.1 7.6 5.5 18.5 3.6 25.2-1.9 6.7-11.4 18.6-11.4 19.5 0 0.9-1-14-1-14z"/>
	<path id="Layer" class="s12" d="m387.9 99.9c0 0 1.9-5 6.2-4.3 3.4 0.5 4.1 12.2-4.2 13.9"/>
	<path id="Layer" class="s4" d="m362 94.5q0 0.4 0 0.8-0.1 0.4-0.2 0.9-0.1 0.4-0.2 0.7-0.2 0.4-0.4 0.8-0.1 0.2-0.2 0.4-0.2 0.1-0.3 0.3-0.1 0.2-0.2 0.4-0.2 0.1-0.3 0.3c-0.2 0.2-0.3 0.4-0.4 0.5-0.1 0.1-0.2 0.3-0.3 0.5q-0.1 0.3-0.1 0.5-0.1 0.3-0.1 0.6 0.1 0.2 0.2 0.5 0.1 0.3 0.2 0.5 0.2 0.3 0.4 0.6 0.2 0.3 0.5 0.6 0.2 0.3 0.5 0.5 0.3 0.3 0.6 0.5-0.4 0-0.9-0.1-0.4-0.1-0.8-0.3-0.4-0.1-0.7-0.4-0.4-0.2-0.7-0.5-0.2-0.2-0.3-0.4-0.2-0.2-0.3-0.4-0.1-0.2-0.2-0.4-0.1-0.3-0.1-0.5-0.1-0.3-0.1-0.5 0-0.3 0-0.6 0-0.2 0.1-0.5 0.1-0.3 0.2-0.5 0-0.1 0.1-0.2 0.1-0.2 0.1-0.3 0.1-0.1 0.2-0.2 0-0.1 0.1-0.2l0.6-0.6c0.4-0.3 0.7-0.7 1.1-1 0.6-0.7 1.2-1.4 1.9-2.3z"/>
	<path id="Layer" fill-rule="evenodd" class="s11" d="m368.5 111.5q0.9-0.1 1.8-0.4 0.8-0.4 1.6-0.9 0.7-0.5 1.3-1.2 0.5-0.8 0.9-1.6"/>
	<path id="Layer" class="s4" d="m372.5 88.8c-0.6-0.7-0.6-2.5 0.6-2.9 1.2-0.4 4.4 0 6.5 2.7 2.1 2.7-2.1 0.6-3.3 0.4-1.2-0.2-3.3 0.3-3.8-0.2z"/>
	<path id="Layer" class="s4" d="m360.6 87.9q0.2 0.1 0.4 0.1 0.3-0.1 0.5-0.1 0.1-0.1 0.3-0.3 0.1-0.2 0.2-0.4 0.1-0.2 0.1-0.5 0.1-0.2 0-0.5 0-0.2-0.1-0.5-0.1-0.2-0.2-0.4c-0.5-0.7-4.6-0.2-5.3 1.7-0.5 1.3 2.1 0.2 3 0.5q0.1 0 0.3 0.1 0.1 0 0.3 0 0.1 0.1 0.2 0.2 0.2 0 0.3 0.1z"/>
	<path id="Layer" class="s4" d="m359.6 94.3q0-0.3 0-0.6-0.1-0.3-0.3-0.6-0.2-0.2-0.5-0.4-0.3-0.2-0.6-0.2-0.3 0-0.6 0-0.3 0.1-0.6 0.3-0.2 0.2-0.4 0.5-0.2 0.3-0.2 0.6v0.4l3.2 0.4z"/>
	<path id="Layer" class="s4" d="m375.1 96.2c0.1-0.4-0.1-0.9-0.3-1.2-0.3-0.3-0.7-0.5-1.1-0.6-0.4-0.1-0.9 0.1-1.2 0.3-0.3 0.3-0.5 0.7-0.6 1.1v0.3l3.2 0.4z"/>
	<path id="Layer" class="s4" d="m394.6 100.1q-0.1-0.1-0.2-0.1-0.1-0.1-0.2-0.1-0.1 0-0.3-0.1-0.1 0-0.2 0c-0.2 0-0.3 0.2-0.5 0.3l-0.1 0.1v1.1q0 0.3 0 0.6 0 0.3 0 0.6 0 0.2 0 0.5-0.1 0.3-0.1 0.6 0 0.2-0.1 0.3-0.1 0.2-0.2 0.4-0.1 0.1-0.2 0.3-0.2 0.1-0.3 0.2-0.1 0.1-0.3 0.2-0.2 0-0.3 0-0.2 0.1-0.4 0.1-0.1-0.1-0.3-0.1c0.3-0.3 0.6-0.5 0.6-0.8q0-0.1 0.1-0.2 0-0.1 0-0.2 0-0.1 0-0.2-0.1-0.1-0.1-0.2c-0.1-0.5-0.2-1.2-0.3-2q0-0.2 0-0.3 0-0.2 0-0.4 0-0.1 0-0.3 0.1-0.1 0.1-0.3 0-0.1 0.1-0.2 0-0.1 0.1-0.2 0-0.1 0.1-0.2 0-0.1 0.1-0.2 0 0 0.1-0.1 0 0 0.1-0.1 0 0 0.1 0 0-0.1 0.1-0.1l0.3-0.2q0.2-0.1 0.4-0.1 0.2-0.1 0.4-0.1 0.1 0 0.3 0.1 0.2 0 0.4 0.1 0.2 0.1 0.3 0.2 0.1 0.2 0.2 0.4 0.1 0.1 0.2 0.3 0 0.2 0 0.4z"/>
	<path id="Layer" class="s11" d="m360.2 95.7c-0.4 4.3-3.5 7.5-6.9 7.2-3.3-0.4-5.7-4.2-5.2-8.5 0.4-4.4 3.5-7.6 6.9-7.2 3.3 0.3 5.7 4.1 5.2 8.5z"/>
	<path id="Layer" class="s11" d="m382.2 97.4c-0.4 4.3-3.9 7.5-7.8 7.1-3.8-0.4-6.6-4.2-6.1-8.6 0.5-4.3 3.9-7.5 7.8-7.1 3.8 0.4 6.6 4.3 6.1 8.6z"/>
	<path id="Layer" fill-rule="evenodd" class="s11" d="m360.3 94.6c0 0 2-1.6 8.1 0.9"/>
	<path id="Layer" class="s11" d="m382.2 96.7l7.1 1"/>
	<path id="Layer" class="s6" d="m275.4 255.8c-1.2 0 4-12.2 9.3-10.5 5.3 1.7-2.6 10.5-9.3 10.5z"/>
	<path id="Layer" class="s6" d="m276 257.4c0 0-5.8-7.2-11.5-5.6-5.7 1.6 1.4 9.9 11.5 5.6z"/>
	<path id="Layer" class="s6" d="m274.3 250.2c0 0 8.6-14.8 4.9-18.3-6.4-6.3-14.5 12.3-4.9 18.3z"/>
	<path id="Layer" class="s4" d="m288.7 283.8l-12.6 2.8q-1.3 0.3-2.6 0.1-1.3-0.2-2.4-0.8-1.2-0.6-2.1-1.5-0.9-1-1.4-2.2l-5.7-13.8q-0.4-1-0.3-2 0-1 0.5-1.9 0.5-0.9 1.3-1.6 0.8-0.6 1.8-0.8l22.8-5.1q1-0.2 2 0 1 0.2 1.8 0.8 0.9 0.7 1.3 1.6 0.5 0.9 0.6 1.9l0.7 14.9q0.1 1.3-0.3 2.6-0.4 1.2-1.2 2.2-0.7 1.1-1.8 1.8-1.1 0.7-2.4 1z"/>
	<path id="Layer" fill-rule="evenodd" class="s18" d="m276.8 260.5c0 0-4-12.1-2.5-17.8"/>
</svg>